<?xml version="1.0" encoding="UTF-8" standalone="no"?>
<!DOCTYPE svg PUBLIC "-//W3C//DTD SVG 1.1//EN" "http://www.w3.org/Graphics/SVG/1.1/DTD/svg11.dtd">
<!-- Created with Vectornator (http://vectornator.io/) -->
<svg height="100%" stroke-miterlimit="10" style="fill-rule:nonzero;clip-rule:evenodd;stroke-linecap:round;stroke-linejoin:round;" version="1.1" viewBox="0 0 1243 1326" width="100%" xml:space="preserve" xmlns="http://www.w3.org/2000/svg" xmlns:vectornator="http://vectornator.io" xmlns:xlink="http://www.w3.org/1999/xlink">
<defs/>
<g id="Layer-2" vectornator:layerName="Layer 2">
<path d="M886.939 815.25C886.939 781.97 915.575 754.991 950.899 754.991C986.224 754.991 1014.86 781.97 1014.86 815.25C1014.86 848.529 986.224 875.508 950.899 875.508C915.575 875.508 886.939 848.529 886.939 815.25Z" fill="#221e22" fill-rule="nonzero" opacity="1" stroke="#221e22" stroke-linecap="round" stroke-linejoin="round" stroke-width="30" vectornator:layerName="Oval 1"/>
<path d="M753.855 865.336C753.855 837.674 776.082 815.25 803.501 815.25C830.92 815.25 853.147 837.674 853.147 865.336C853.147 892.999 830.92 915.423 803.501 915.423C776.082 915.423 753.855 892.999 753.855 865.336Z" fill="#221e22" fill-rule="nonzero" opacity="1" stroke="#221e22" stroke-linecap="round" stroke-linejoin="round" stroke-width="30" vectornator:layerName="Oval 2"/>
<path d="M737.413 306.494C737.413 306.494 826.403 263.648 905.825 311.94C1009.64 375.064 998.38 505.036 998.38 505.036C998.38 505.036 1044.97 506.791 1073 527.648C1107.45 553.27 1093.28 606.785 1093.28 606.785C1093.28 606.785 1106.06 605.897 1121.77 614.474C1137.49 623.051 1136.43 634.908 1136.43 634.908C1136.43 634.908 1126.86 661.126 1117.31 686.163C1109.19 707.475 1096.28 729.9 1084.83 736.926C1080.69 739.464 1065.69 752.057 1042.55 748.172C1016.67 743.826 1072.33 739.146 1056.38 739.146C1042.52 739.146 1037.12 751.669 1027.97 743.939C1018.83 736.208 1010.49 721.396 1009.64 716.745L715.532 717.26L484.537 715.959C484.537 715.959 456.064 715.505 443.167 716.059C427.774 716.72 412.113 715.33 412.113 715.33L335.283 715.896C335.283 715.896 335.283 651.012 335.283 613.797C335.283 591.572 346.031 583.045 354.373 578.241C360 575 364.099 572.416 379.468 572.882C386.236 573.087 391.326 572.821 396.103 572.779C418.251 572.584 416.913 579.788 429.992 579.881C437.078 579.932 439.848 573.882 440.454 570.311C441.207 565.871 438.755 563.712 438.755 563.712C438.755 563.712 418.803 559.143 409.408 537.037C400.013 514.931 403.981 496.898 403.981 496.898C403.981 496.898 405.844 483.367 412.064 471.978C416.418 464.006 423.574 458.496 430.869 453.384C448.585 440.967 484.537 438.132 484.537 438.132L484.537 438.132C484.537 438.132 479.648 390.413 503.013 353.593C517.062 331.454 527.285 320.585 539.629 311.307C578.384 282.175 601.782 281.39 601.782 281.39C601.782 281.39 621.717 272.562 671.594 281.39C717.079 289.441 740.436 316.573 740.299 317.806C738.867 330.723 737.413 306.494 737.413 306.494Z" fill="#221e22" fill-rule="nonzero" opacity="1" stroke="#221e22" stroke-linecap="round" stroke-linejoin="round" stroke-width="30" vectornator:layerName="Curve 1"/>
<g opacity="1" vectornator:layerName="Text 1">
<path d="M363.954 588.344L394.52 588.344C402.471 588.344 409.29 589.081 414.977 590.556C420.663 592.03 425.824 594.795 430.457 598.849C442.515 609.169 448.544 624.861 448.544 645.923C448.544 652.873 447.939 659.218 446.728 664.958C445.517 670.697 443.647 675.87 441.12 680.478C438.592 685.085 435.354 689.205 431.405 692.839C428.298 695.629 424.902 697.867 421.216 699.552C417.53 701.237 413.568 702.422 409.329 703.106C405.091 703.791 400.312 704.133 394.994 704.133L364.428 704.133C360.162 704.133 356.95 703.488 354.792 702.198C352.633 700.908 351.224 699.091 350.566 696.748C349.908 694.405 349.579 691.364 349.579 687.626L349.579 602.719C349.579 597.664 350.711 594.005 352.975 591.74C355.239 589.476 358.899 588.344 363.954 588.344ZM373.037 606.905L373.037 685.493L390.808 685.493C394.704 685.493 397.758 685.388 399.97 685.177C402.181 684.967 404.472 684.44 406.841 683.598C409.211 682.755 411.264 681.57 413.002 680.043C420.848 673.409 424.77 661.983 424.77 645.765C424.77 634.339 423.046 625.782 419.597 620.095C416.148 614.409 411.896 610.789 406.841 609.235C401.786 607.682 395.678 606.905 388.517 606.905L373.037 606.905Z" fill="#7d6b91" fill-rule="nonzero" opacity="1" stroke="#7d6b91" stroke-linecap="butt" stroke-linejoin="round" stroke-width="5.91919" vectornator:layerName="path"/>
<path d="M491.219 674.989L491.219 692.997C491.219 697.367 490.193 700.645 488.139 702.83C486.085 705.015 483.479 706.108 480.32 706.108C477.213 706.108 474.659 705.002 472.658 702.79C470.657 700.579 469.657 697.314 469.657 692.997L469.657 632.97C469.657 623.281 473.159 618.437 480.162 618.437C483.742 618.437 486.322 619.569 487.902 621.833C489.482 624.097 490.351 627.441 490.508 631.864C493.089 627.441 495.735 624.097 498.446 621.833C501.158 619.569 504.778 618.437 509.306 618.437C513.835 618.437 518.231 619.569 522.497 621.833C526.762 624.097 528.894 627.099 528.894 630.837C528.894 633.47 527.986 635.642 526.169 637.353C524.353 639.064 522.391 639.92 520.285 639.92C519.495 639.92 517.586 639.433 514.559 638.459C511.531 637.485 508.859 636.998 506.542 636.998C503.383 636.998 500.803 637.827 498.802 639.486C496.801 641.144 495.247 643.606 494.142 646.871C493.036 650.135 492.272 654.019 491.851 658.521C491.43 663.023 491.219 668.512 491.219 674.989Z" fill="#7d6b91" fill-rule="nonzero" opacity="1" stroke="#7d6b91" stroke-linecap="butt" stroke-linejoin="round" stroke-width="5.91919" vectornator:layerName="path"/>
<path d="M598.976 667.564L556.799 667.564C556.852 672.461 557.839 676.779 559.761 680.517C561.683 684.256 564.237 687.073 567.423 688.968C570.608 690.864 574.123 691.812 577.967 691.812C580.547 691.812 582.903 691.509 585.036 690.904C587.168 690.298 589.235 689.35 591.236 688.06C593.237 686.77 595.08 685.388 596.765 683.914C598.45 682.439 600.635 680.438 603.32 677.911C604.426 676.963 606.006 676.489 608.059 676.489C610.271 676.489 612.061 677.095 613.43 678.306C614.799 679.517 615.484 681.228 615.484 683.44C615.484 685.388 614.72 687.665 613.193 690.272C611.666 692.878 609.363 695.379 606.282 697.775C603.202 700.171 599.332 702.159 594.672 703.738C590.012 705.318 584.654 706.108 578.599 706.108C564.75 706.108 553.982 702.159 546.295 694.26C538.607 686.362 534.763 675.647 534.763 662.114C534.763 655.743 535.711 649.832 537.607 644.383C539.502 638.933 542.267 634.26 545.9 630.363C549.533 626.467 554.009 623.478 559.327 621.399C564.645 619.319 570.542 618.279 577.019 618.279C585.444 618.279 592.671 620.056 598.7 623.61C604.729 627.164 609.244 631.759 612.245 637.393C615.247 643.027 616.747 648.766 616.747 654.611C616.747 660.034 615.194 663.549 612.087 665.155C608.981 666.761 604.61 667.564 598.976 667.564ZM556.799 655.322L595.896 655.322C595.369 647.95 593.382 642.434 589.933 638.775C586.484 635.115 581.942 633.286 576.308 633.286C570.937 633.286 566.527 635.142 563.079 638.854C559.63 642.566 557.537 648.055 556.799 655.322Z" fill="#7d6b91" fill-rule="nonzero" opacity="1" stroke="#7d6b91" stroke-linecap="butt" stroke-linejoin="round" stroke-width="5.91919" vectornator:layerName="path"/>
<path d="M691.568 693.944C686.356 697.999 681.314 701.04 676.443 703.067C671.573 705.094 666.11 706.108 660.054 706.108C654.525 706.108 649.668 705.015 645.482 702.83C641.296 700.645 638.071 697.683 635.807 693.944C633.542 690.206 632.41 686.151 632.41 681.781C632.41 675.884 634.28 670.855 638.018 666.695C641.757 662.536 646.89 659.745 653.42 658.323C654.789 658.007 658.185 657.296 663.609 656.191C669.032 655.085 673.679 654.071 677.549 653.15C681.419 652.228 685.618 651.109 690.147 649.793C689.884 644.106 688.738 639.933 686.711 637.274C684.684 634.615 680.485 633.286 674.113 633.286C668.637 633.286 664.517 634.049 661.752 635.576C658.988 637.103 656.619 639.394 654.644 642.448C652.669 645.502 651.274 647.516 650.458 648.49C649.642 649.464 647.891 649.951 645.206 649.951C642.783 649.951 640.69 649.174 638.926 647.621C637.162 646.068 636.28 644.08 636.28 641.658C636.28 637.867 637.623 634.181 640.309 630.6C642.994 627.02 647.18 624.071 652.867 621.754C658.554 619.437 665.636 618.279 674.113 618.279C683.591 618.279 691.042 619.398 696.465 621.636C701.889 623.873 705.72 627.414 707.957 632.259C710.195 637.103 711.314 643.527 711.314 651.531C711.314 656.585 711.301 660.877 711.275 664.405C711.248 667.933 711.209 671.856 711.156 676.173C711.156 680.228 711.828 684.453 713.17 688.85C714.513 693.247 715.184 696.077 715.184 697.341C715.184 699.552 714.144 701.566 712.065 703.383C709.985 705.199 707.628 706.108 704.996 706.108C702.784 706.108 700.599 705.068 698.44 702.988C696.281 700.908 693.991 697.894 691.568 693.944ZM690.147 662.746C686.987 663.905 682.393 665.129 676.364 666.419C670.335 667.709 666.162 668.657 663.845 669.262C661.529 669.868 659.317 671.053 657.211 672.816C655.105 674.58 654.052 677.042 654.052 680.201C654.052 683.466 655.289 686.244 657.764 688.534C660.239 690.825 663.477 691.97 667.479 691.97C671.744 691.97 675.68 691.035 679.287 689.166C682.894 687.297 685.539 684.888 687.224 681.939C689.173 678.674 690.147 673.304 690.147 665.826L690.147 662.746Z" fill="#7d6b91" fill-rule="nonzero" opacity="1" stroke="#7d6b91" stroke-linecap="butt" stroke-linejoin="round" stroke-width="5.91919" vectornator:layerName="path"/>
<path d="M807.066 663.852L807.066 692.523C807.066 697.051 806.039 700.447 803.985 702.712C801.932 704.976 799.22 706.108 795.85 706.108C792.586 706.108 789.94 704.976 787.912 702.712C785.885 700.447 784.872 697.051 784.872 692.523L784.872 658.165C784.872 652.742 784.687 648.529 784.319 645.528C783.95 642.527 782.95 640.065 781.317 638.143C779.685 636.221 777.105 635.26 773.577 635.26C766.521 635.26 761.874 637.682 759.636 642.527C757.399 647.371 756.28 654.321 756.28 663.378L756.28 692.523C756.28 696.998 755.266 700.382 753.239 702.672C751.212 704.963 748.539 706.108 745.222 706.108C741.957 706.108 739.285 704.963 737.205 702.672C735.125 700.382 734.086 696.998 734.086 692.523L734.086 630.837C734.086 626.783 735.02 623.702 736.889 621.596C738.759 619.49 741.22 618.437 744.274 618.437C747.223 618.437 749.685 619.424 751.659 621.399C753.634 623.373 754.621 626.098 754.621 629.573L754.621 631.627C758.36 627.151 762.361 623.86 766.626 621.754C770.892 619.648 775.631 618.595 780.843 618.595C786.267 618.595 790.927 619.674 794.823 621.833C798.72 623.992 801.932 627.256 804.459 631.627C808.093 627.204 811.989 623.926 816.149 621.794C820.309 619.661 824.916 618.595 829.971 618.595C835.868 618.595 840.949 619.753 845.215 622.07C849.48 624.387 852.665 627.704 854.771 632.022C856.614 635.918 857.536 642.053 857.536 650.425L857.536 692.523C857.536 697.051 856.509 700.447 854.456 702.712C852.402 704.976 849.69 706.108 846.32 706.108C843.056 706.108 840.383 704.963 838.303 702.672C836.224 700.382 835.184 696.998 835.184 692.523L835.184 656.27C835.184 651.636 834.986 647.924 834.591 645.133C834.196 642.342 833.13 639.999 831.392 638.103C829.655 636.208 827.022 635.26 823.494 635.26C820.651 635.26 817.952 636.103 815.398 637.788C812.845 639.473 810.857 641.737 809.435 644.58C807.856 648.213 807.066 654.637 807.066 663.852Z" fill="#7d6b91" fill-rule="nonzero" opacity="1" stroke="#7d6b91" stroke-linecap="butt" stroke-linejoin="round" stroke-width="5.91919" vectornator:layerName="path"/>
<path d="M940.808 667.564L898.631 667.564C898.684 672.461 899.671 676.779 901.593 680.517C903.515 684.256 906.069 687.073 909.254 688.968C912.44 690.864 915.955 691.812 919.799 691.812C922.379 691.812 924.735 691.509 926.868 690.904C929 690.298 931.067 689.35 933.068 688.06C935.069 686.77 936.912 685.388 938.597 683.914C940.282 682.439 942.467 680.438 945.152 677.911C946.258 676.963 947.838 676.489 949.891 676.489C952.103 676.489 953.893 677.095 955.262 678.306C956.631 679.517 957.316 681.228 957.316 683.44C957.316 685.388 956.552 687.665 955.025 690.272C953.498 692.878 951.194 695.379 948.114 697.775C945.034 700.171 941.163 702.159 936.503 703.738C931.844 705.318 926.486 706.108 920.43 706.108C906.582 706.108 895.814 702.159 888.126 694.26C880.439 686.362 876.595 675.647 876.595 662.114C876.595 655.743 877.543 649.832 879.438 644.383C881.334 638.933 884.098 634.26 887.732 630.363C891.365 626.467 895.84 623.478 901.159 621.399C906.477 619.319 912.374 618.279 918.851 618.279C927.276 618.279 934.503 620.056 940.532 623.61C946.561 627.164 951.076 631.759 954.077 637.393C957.079 643.027 958.579 648.766 958.579 654.611C958.579 660.034 957.026 663.549 953.919 665.155C950.813 666.761 946.442 667.564 940.808 667.564ZM898.631 655.322L937.728 655.322C937.201 647.95 935.213 642.434 931.765 638.775C928.316 635.115 923.774 633.286 918.14 633.286C912.769 633.286 908.359 635.142 904.91 638.854C901.461 642.566 899.368 648.055 898.631 655.322Z" fill="#7d6b91" fill-rule="nonzero" opacity="1" stroke="#7d6b91" stroke-linecap="butt" stroke-linejoin="round" stroke-width="5.91919" vectornator:layerName="path"/>
<path d="M1000.31 674.989L1000.31 692.997C1000.31 697.367 999.28 700.645 997.226 702.83C995.173 705.015 992.566 706.108 989.407 706.108C986.3 706.108 983.746 705.002 981.745 702.79C979.745 700.579 978.744 697.314 978.744 692.997L978.744 632.97C978.744 623.281 982.246 618.437 989.249 618.437C992.829 618.437 995.409 619.569 996.989 621.833C998.569 624.097 999.438 627.441 999.596 631.864C1002.18 627.441 1004.82 624.097 1007.53 621.833C1010.25 619.569 1013.87 618.437 1018.39 618.437C1022.92 618.437 1027.32 619.569 1031.58 621.833C1035.85 624.097 1037.98 627.099 1037.98 630.837C1037.98 633.47 1037.07 635.642 1035.26 637.353C1033.44 639.064 1031.48 639.92 1029.37 639.92C1028.58 639.92 1026.67 639.433 1023.65 638.459C1020.62 637.485 1017.95 636.998 1015.63 636.998C1012.47 636.998 1009.89 637.827 1007.89 639.486C1005.89 641.144 1004.33 643.606 1003.23 646.871C1002.12 650.135 1001.36 654.019 1000.94 658.521C1000.52 663.023 1000.31 668.512 1000.31 674.989Z" fill="#7d6b91" fill-rule="nonzero" opacity="1" stroke="#7d6b91" stroke-linecap="butt" stroke-linejoin="round" stroke-width="5.91919" vectornator:layerName="path"/>
<path d="M1071.81 708.793L1073.78 703.975L1047.25 637.156C1045.61 633.312 1044.8 630.521 1044.8 628.783C1044.8 626.941 1045.27 625.229 1046.22 623.65C1047.17 622.07 1048.47 620.806 1050.13 619.858C1051.79 618.911 1053.51 618.437 1055.3 618.437C1058.41 618.437 1060.75 619.424 1062.33 621.399C1063.91 623.373 1065.31 626.203 1066.52 629.889L1084.76 682.966L1102.06 633.601C1103.43 629.6 1104.67 626.467 1105.77 624.202C1106.88 621.938 1108.05 620.411 1109.29 619.621C1110.53 618.832 1112.28 618.437 1114.54 618.437C1116.17 618.437 1117.74 618.871 1119.24 619.74C1120.74 620.609 1121.9 621.78 1122.71 623.255C1123.53 624.729 1123.94 626.282 1123.94 627.915C1123.73 628.915 1123.39 630.337 1122.91 632.18C1122.44 634.023 1121.86 635.892 1121.17 637.788L1093.06 711.4C1090.63 717.876 1088.26 722.957 1085.95 726.643C1083.63 730.329 1080.56 733.159 1076.75 735.134C1072.93 737.109 1067.78 738.096 1061.31 738.096C1054.99 738.096 1050.25 737.411 1047.09 736.042C1043.93 734.673 1042.35 732.172 1042.35 728.539C1042.35 726.064 1043.1 724.155 1044.6 722.813C1046.1 721.47 1048.33 720.799 1051.27 720.799C1052.43 720.799 1053.57 720.957 1054.67 721.273C1056.04 721.588 1057.22 721.746 1058.23 721.746C1060.7 721.746 1062.65 721.378 1064.07 720.641C1065.49 719.903 1066.77 718.627 1067.9 716.81C1069.03 714.993 1070.34 712.321 1071.81 708.793Z" fill="#7d6b91" fill-rule="nonzero" opacity="1" stroke="#7d6b91" stroke-linecap="butt" stroke-linejoin="round" stroke-width="5.91919" vectornator:layerName="path"/>
</g>
<path d="M657.238 281.39C657.238 281.39 570.308 284.934 533.775 321.293C497.243 357.652 486.976 436.251 486.976 436.251C486.976 436.251 495.571 514.076 536.167 551.133C576.763 588.191 649.359 584.481 649.359 584.481L584.956 509.381L558.366 427.096L589.05 351.206L657.238 281.39Z" fill="#ffc482" fill-rule="nonzero" opacity="1" stroke="#221e22" stroke-linecap="butt" stroke-linejoin="round" stroke-width="0.1" vectornator:layerName="Curve 1"/>
<path d="M673.078 282.316C673.078 282.316 732.421 300.221 762.564 340.574C792.708 380.928 793.653 443.73 793.653 443.73C793.653 443.73 793.172 494.759 762.564 530.669C731.956 566.579 671.22 587.37 671.22 587.37C671.22 587.37 615.664 552.225 589.637 513.188C563.609 474.151 567.11 431.221 567.11 431.221C567.11 431.221 573.759 377.922 600.251 340.696C626.743 303.47 673.078 282.316 673.078 282.316Z" fill="#188fa7" fill-rule="nonzero" opacity="1" stroke="#221e22" stroke-linecap="butt" stroke-linejoin="round" stroke-width="0.1" vectornator:layerName="Curve 2"/>
<path d="M486.976 408.259C498.634 332.6 564.435 281.39 641.813 281.39C727.196 281.39 791.083 340.321 794.343 432.494C797.479 521.19 725.126 593.193 639.743 593.193C554.36 593.193 485.144 521.246 485.144 432.494" fill="none" opacity="1" stroke="#221e22" stroke-linecap="butt" stroke-linejoin="round" stroke-width="19.9192" vectornator:layerName="Curve 2"/>
<path d="M485.144 432.494C485.144 424.174 485.77 416.085 486.976 408.259" fill="none" opacity="1" stroke="#221e22" stroke-linecap="butt" stroke-linejoin="round" stroke-width="19.9192" vectornator:layerName="Oval 1"/>
<path d="M563.348 432.494C563.244 435.025 563.222 437.529 563.275 440.007" fill="none" opacity="1" stroke="#221e22" stroke-linecap="butt" stroke-linejoin="round" stroke-width="19.9192" vectornator:layerName="Curve 6"/>
<path d="M563.275 440.007C565.254 531.562 671.594 586.267 671.594 586.267C671.594 586.267 697.437 583.594 717.079 573.83C753.372 555.789 794.343 508.194 794.343 432.494" fill="none" opacity="1" stroke="#221e22" stroke-linecap="butt" stroke-linejoin="round" stroke-width="19.9192" vectornator:layerName="Curve 3"/>
<path d="M794.343 432.494C794.343 376.038 765.534 334.383 735.865 311.627C704.223 287.356 671.594 283.89 671.594 283.89" fill="none" opacity="1" stroke="#221e22" stroke-linecap="butt" stroke-linejoin="round" stroke-width="19.9192" vectornator:layerName="Curve 5"/>
<path d="M671.594 283.89C671.594 283.89 577.365 331.345 564.648 418.523" fill="none" opacity="1" stroke="#221e22" stroke-linecap="butt" stroke-linejoin="round" stroke-width="19.9192" vectornator:layerName="Curve 4"/>
<path d="M564.648 418.523C563.984 423.072 563.543 427.73 563.348 432.494" fill="none" opacity="1" stroke="#221e22" stroke-linecap="butt" stroke-linejoin="round" stroke-width="19.9192" vectornator:layerName="Curve 1"/>
<path d="M686.206 435.022L688.093 403.122L662.884 383.483L693.806 375.42L704.694 345.377L721.917 372.293L753.855 373.364L733.578 398.063L742.428 428.768L712.673 417.116L686.206 435.022Z" fill="#dee5e5" fill-rule="nonzero" opacity="1" stroke="#141414" stroke-linecap="butt" stroke-linejoin="round" stroke-width="10.9192" vectornator:layerName="Star 1"/>
<path d="M633.103 491.668L623.901 473.021L603.323 470.031L618.213 455.517L614.698 435.022L633.103 444.698L651.509 435.022L647.994 455.517L662.884 470.031L642.306 473.021L633.103 491.668Z" fill="#dee5e5" fill-rule="nonzero" opacity="1" stroke="#141414" stroke-linecap="butt" stroke-linejoin="round" stroke-width="10.9192" vectornator:layerName="Star 2"/>
<path d="M1023.6 386.418L1032.47 358.93L1014.86 336.038L1043.74 335.982L1060.07 312.156L1069.05 339.609L1096.76 347.776L1073.42 364.799L1074.22 393.673L1050.82 376.74L1023.6 386.418Z" fill="#dee5e5" fill-rule="nonzero" opacity="1" stroke="#141414" stroke-linecap="butt" stroke-linejoin="round" stroke-width="10.9192" vectornator:layerName="Star 3"/>
<path d="M335.283 509.381L326.792 492.174L307.804 489.415L321.544 476.022L318.3 457.111L335.283 466.04L352.267 457.111L349.023 476.022L362.763 489.415L343.775 492.174L335.283 509.381Z" fill="#dee5e5" fill-rule="nonzero" opacity="1" stroke="#141414" stroke-linecap="butt" stroke-linejoin="round" stroke-width="9.0389" vectornator:layerName="Star 4"/>
<path d="M381.834 408.259L384.208 380.594L362.763 362.955L389.807 356.663L399.956 330.818L414.297 354.594L442.014 356.26L423.833 377.246L430.814 404.12L405.236 393.315L381.834 408.259Z" fill="#dee5e5" fill-rule="nonzero" opacity="1" stroke="#141414" stroke-linecap="butt" stroke-linejoin="round" stroke-width="10.4843" vectornator:layerName="Star 5"/>
</g>
</svg>
